#N canvas 2 582 956 496 12;
#X obj 299 104 inlet;
#X symbolatom 200 219 15 0 0 0 - - -;
#X obj 76 101 inlet;
#X floatatom 260 200 3 0 0 0 - #0-time #0-time_out;
#X text 273 76 patch name;
#X text 30 76 autosave frequency (minutes);
#X obj 16 157 loadbang;
#X msg 16 195 del 5000;
#X obj 38 215 t b b;
#X msg 55 406 menusave;
#X obj 55 443 s;
#X obj 55 283 tgl 15 0 empty empty empty 17 7 0 10 -262144 -1 -1 1
1;
#X obj 55 328 t b b;
#X obj 108 280 * 60000;
#X msg 70 239 5, f 1;
#X obj 55 303 metro, f 8;
#X obj 76 126 sel 0;
#X text 200 199 autosave;
#X text 286 199 frequency (min);
#X text 314 218 patch name;
#X obj 299 132 symbol;
#X msg 411 177 pd-;
#X obj 411 259 symbol;
#X obj 478 259 symbol;
#X msg 478 177 .pd;
#X obj 200 328 pack s s s;
#X msg 200 374 \$2\$1\$3;
#X obj 200 399 symbol;
#X obj 108 210 t b f b;
#X text 29 10 autosave.pd;
#X obj 123 154 s \$0-time;
#X connect 0 0 20 0;
#X connect 1 0 25 0;
#X connect 2 0 16 0;
#X connect 6 0 7 0;
#X connect 6 0 24 0;
#X connect 7 0 8 0;
#X connect 8 0 11 0;
#X connect 8 1 14 0;
#X connect 9 0 10 0;
#X connect 11 0 15 0;
#X connect 12 0 9 0;
#X connect 12 1 27 0;
#X connect 13 0 15 1;
#X connect 14 0 13 0;
#X connect 14 0 30 0;
#X connect 15 0 12 0;
#X connect 16 1 28 0;
#X connect 16 1 30 0;
#X connect 20 0 1 0;
#X connect 21 0 22 0;
#X connect 22 0 25 1;
#X connect 23 0 25 2;
#X connect 24 0 23 0;
#X connect 25 0 26 0;
#X connect 26 0 27 0;
#X connect 27 0 10 1;
#X connect 28 0 11 0;
#X connect 28 1 13 0;
#X connect 28 2 11 0;
#X coords 0 -1 1 1 195 38 2 200 200;
