#N canvas 886 166 956 993 12;
#X obj 76 115 osc~ 400;
#X obj 76 143 env~;
#X obj 76 167 change;
#X obj 79 256 del 100;
#X msg 91 230 stop;
#X msg 77 285 0;
#X obj 77 194 t b b b;
#X msg 126 288 1;
#X obj 200 200 tgl 40 0 empty empty empty 17 7 0 10 -262144 -1 -1 0
1;
#X connect 0 0 1 0;
#X connect 1 0 2 0;
#X connect 2 0 6 0;
#X connect 3 0 5 0;
#X connect 4 0 3 0;
#X connect 5 0 8 0;
#X connect 6 0 3 0;
#X connect 6 1 4 0;
#X connect 6 2 7 0;
#X connect 7 0 8 0;
#X coords 0 -1 1 1 40 40 2 200 200;
