#N canvas 962 95 956 983 12;
#X obj 200 200 tgl 40 0 empty empty empty 17 7 0 10 -262144 -1 -1 0
1;
#X text 198 36 detect_dsp.py;
#X msg 200 245 \; pd dsp \$1;
#X obj 200 127 r pd;
#X obj 200 161 route dsp;
#X text 128 83 toggle/indicate DSP engine is active;
#X connect 0 0 2 0;
#X connect 3 0 4 0;
#X connect 4 0 0 0;
#X coords 0 -1 1 1 40 40 2 200 200;
