#N canvas 2 93 555 470 12;
#X obj 101 201 tgl 48 0 empty empty empty 17 7 0 10 -262144 -1 -1 0
1;
#X msg 101 384 \; pd dsp \$1;
#X obj 101 47 r pd;
#X obj 101 71 route dsp;
#X text 89 23 toggle/indicate DSP engine is active;
#X obj 101 296 spigot;
#X obj 101 321 t b f b;
#X msg 161 353 1, f 1;
#X msg 207 353 0, f 1;
#X obj 190 214 tgl 15 0 empty empty empty 17 7 0 10 -262144 -1 -1 1
1;
#X obj 101 113 spigot;
#X obj 101 138 t b f b;
#X msg 101 160 1, f 1;
#X msg 147 160 0, f 1;
#X obj 270 81 tgl 15 0 empty empty empty 17 7 0 10 -262144 -1 -1 1
1;
#X text 88 6 dsp_detect.py;
#X msg 359 129 1;
#X obj 359 104 loadbang;
#X connect 0 0 5 0;
#X connect 2 0 3 0;
#X connect 3 0 10 0;
#X connect 5 0 6 0;
#X connect 6 0 7 0;
#X connect 6 1 1 0;
#X connect 6 2 8 0;
#X connect 7 0 14 0;
#X connect 8 0 14 0;
#X connect 9 0 5 1;
#X connect 10 0 11 0;
#X connect 11 0 12 0;
#X connect 11 1 0 0;
#X connect 11 2 13 0;
#X connect 12 0 9 0;
#X connect 13 0 9 0;
#X connect 14 0 10 1;
#X connect 16 0 14 0;
#X connect 16 0 9 0;
#X connect 17 0 16 0;
#X coords 0 -1 1 1 50 50 2 100 200;
